<mxfile host="app.diagrams.net" agent="Mozilla/5.0 (Windows NT 10.0; Win64; x64; rv:127.0) Gecko/20100101 Firefox/127.0" version="24.8.3">
  <diagram name="Página-1" id="0lkLL7-deegIhbXqSp4G">
    <mxGraphModel dx="2514" dy="854" grid="1" gridSize="10" guides="1" tooltips="1" connect="1" arrows="1" fold="1" page="1" pageScale="1" pageWidth="827" pageHeight="1169" math="0" shadow="0">
      <root>
        <mxCell id="0" />
        <mxCell id="1" parent="0" />
        <mxCell id="C5BarlyM2F8t3TJ2HvOE-21" style="rounded=0;orthogonalLoop=1;jettySize=auto;html=1;exitX=0;exitY=1;exitDx=0;exitDy=0;entryX=1;entryY=0;entryDx=0;entryDy=0;" edge="1" parent="1" source="C5BarlyM2F8t3TJ2HvOE-1" target="C5BarlyM2F8t3TJ2HvOE-15">
          <mxGeometry relative="1" as="geometry" />
        </mxCell>
        <mxCell id="C5BarlyM2F8t3TJ2HvOE-22" style="rounded=0;orthogonalLoop=1;jettySize=auto;html=1;exitX=0.5;exitY=1;exitDx=0;exitDy=0;" edge="1" parent="1" source="C5BarlyM2F8t3TJ2HvOE-1" target="C5BarlyM2F8t3TJ2HvOE-9">
          <mxGeometry relative="1" as="geometry" />
        </mxCell>
        <mxCell id="C5BarlyM2F8t3TJ2HvOE-30" style="rounded=0;orthogonalLoop=1;jettySize=auto;html=1;exitX=1;exitY=1;exitDx=0;exitDy=0;" edge="1" parent="1" source="C5BarlyM2F8t3TJ2HvOE-1" target="C5BarlyM2F8t3TJ2HvOE-29">
          <mxGeometry relative="1" as="geometry" />
        </mxCell>
        <mxCell id="C5BarlyM2F8t3TJ2HvOE-45" style="rounded=0;orthogonalLoop=1;jettySize=auto;html=1;exitX=0.25;exitY=1;exitDx=0;exitDy=0;edgeStyle=orthogonalEdgeStyle;curved=1;" edge="1" parent="1" source="C5BarlyM2F8t3TJ2HvOE-1" target="C5BarlyM2F8t3TJ2HvOE-44">
          <mxGeometry relative="1" as="geometry">
            <Array as="points">
              <mxPoint x="110" y="190" />
              <mxPoint x="110" y="620" />
              <mxPoint x="-275" y="620" />
            </Array>
          </mxGeometry>
        </mxCell>
        <mxCell id="C5BarlyM2F8t3TJ2HvOE-1" value="Usuário" style="rounded=0;whiteSpace=wrap;html=1;" vertex="1" parent="1">
          <mxGeometry x="150" y="50" width="220" height="140" as="geometry" />
        </mxCell>
        <mxCell id="C5BarlyM2F8t3TJ2HvOE-2" value="Data de nascimento" style="ellipse;whiteSpace=wrap;html=1;" vertex="1" parent="1">
          <mxGeometry x="40" y="110" width="90" height="50" as="geometry" />
        </mxCell>
        <mxCell id="C5BarlyM2F8t3TJ2HvOE-3" value="Data de criação" style="ellipse;whiteSpace=wrap;html=1;" vertex="1" parent="1">
          <mxGeometry x="379" y="70" width="70" height="50" as="geometry" />
        </mxCell>
        <mxCell id="C5BarlyM2F8t3TJ2HvOE-4" value="Status da assinatura" style="ellipse;whiteSpace=wrap;html=1;" vertex="1" parent="1">
          <mxGeometry x="40" y="50" width="90" height="50" as="geometry" />
        </mxCell>
        <mxCell id="C5BarlyM2F8t3TJ2HvOE-5" value="Id" style="ellipse;whiteSpace=wrap;html=1;" vertex="1" parent="1">
          <mxGeometry x="379" y="10" width="50" height="40" as="geometry" />
        </mxCell>
        <mxCell id="C5BarlyM2F8t3TJ2HvOE-6" value="Email" style="ellipse;whiteSpace=wrap;html=1;" vertex="1" parent="1">
          <mxGeometry x="125" width="70" height="40" as="geometry" />
        </mxCell>
        <mxCell id="C5BarlyM2F8t3TJ2HvOE-7" value="Senha" style="ellipse;whiteSpace=wrap;html=1;" vertex="1" parent="1">
          <mxGeometry x="300" width="60" height="40" as="geometry" />
        </mxCell>
        <mxCell id="C5BarlyM2F8t3TJ2HvOE-8" value="Nome" style="ellipse;whiteSpace=wrap;html=1;" vertex="1" parent="1">
          <mxGeometry x="210" width="70" height="40" as="geometry" />
        </mxCell>
        <mxCell id="C5BarlyM2F8t3TJ2HvOE-9" value="Playlist" style="rounded=0;whiteSpace=wrap;html=1;" vertex="1" parent="1">
          <mxGeometry x="170" y="340" width="160" height="80" as="geometry" />
        </mxCell>
        <mxCell id="C5BarlyM2F8t3TJ2HvOE-12" value="Data de criação" style="ellipse;whiteSpace=wrap;html=1;" vertex="1" parent="1">
          <mxGeometry x="270" y="430" width="70" height="50" as="geometry" />
        </mxCell>
        <mxCell id="C5BarlyM2F8t3TJ2HvOE-13" value="Id" style="ellipse;whiteSpace=wrap;html=1;" vertex="1" parent="1">
          <mxGeometry x="345" y="420" width="50" height="40" as="geometry" />
        </mxCell>
        <mxCell id="C5BarlyM2F8t3TJ2HvOE-14" value="Título" style="ellipse;whiteSpace=wrap;html=1;" vertex="1" parent="1">
          <mxGeometry x="340" y="370" width="60" height="30" as="geometry" />
        </mxCell>
        <mxCell id="C5BarlyM2F8t3TJ2HvOE-15" value="Assinatura" style="rounded=0;whiteSpace=wrap;html=1;" vertex="1" parent="1">
          <mxGeometry x="-120" y="295" width="150" height="80" as="geometry" />
        </mxCell>
        <mxCell id="C5BarlyM2F8t3TJ2HvOE-16" value="Id" style="ellipse;whiteSpace=wrap;html=1;" vertex="1" parent="1">
          <mxGeometry x="-120" y="385" width="50" height="40" as="geometry" />
        </mxCell>
        <mxCell id="C5BarlyM2F8t3TJ2HvOE-17" value="Nome do plano" style="ellipse;whiteSpace=wrap;html=1;" vertex="1" parent="1">
          <mxGeometry x="-50" y="380" width="70" height="50" as="geometry" />
        </mxCell>
        <mxCell id="C5BarlyM2F8t3TJ2HvOE-18" value="Preço mensal" style="ellipse;whiteSpace=wrap;html=1;" vertex="1" parent="1">
          <mxGeometry x="-200" y="335" width="70" height="40" as="geometry" />
        </mxCell>
        <mxCell id="C5BarlyM2F8t3TJ2HvOE-19" value="Limite de telas" style="ellipse;whiteSpace=wrap;html=1;" vertex="1" parent="1">
          <mxGeometry x="-200" y="285" width="70" height="40" as="geometry" />
        </mxCell>
        <mxCell id="C5BarlyM2F8t3TJ2HvOE-23" value="Favorito" style="rounded=0;whiteSpace=wrap;html=1;" vertex="1" parent="1">
          <mxGeometry x="480" y="370" width="140" height="70" as="geometry" />
        </mxCell>
        <mxCell id="C5BarlyM2F8t3TJ2HvOE-24" value="Id" style="ellipse;whiteSpace=wrap;html=1;" vertex="1" parent="1">
          <mxGeometry x="480" y="450" width="50" height="40" as="geometry" />
        </mxCell>
        <mxCell id="C5BarlyM2F8t3TJ2HvOE-27" value="Data de adição" style="ellipse;whiteSpace=wrap;html=1;" vertex="1" parent="1">
          <mxGeometry x="550" y="450" width="80" height="60" as="geometry" />
        </mxCell>
        <mxCell id="C5BarlyM2F8t3TJ2HvOE-28" style="rounded=0;orthogonalLoop=1;jettySize=auto;html=1;exitX=1;exitY=1;exitDx=0;exitDy=0;entryX=0.007;entryY=0.1;entryDx=0;entryDy=0;entryPerimeter=0;" edge="1" parent="1" source="C5BarlyM2F8t3TJ2HvOE-1" target="C5BarlyM2F8t3TJ2HvOE-23">
          <mxGeometry relative="1" as="geometry" />
        </mxCell>
        <mxCell id="C5BarlyM2F8t3TJ2HvOE-29" value="Pagamento" style="rounded=0;whiteSpace=wrap;html=1;" vertex="1" parent="1">
          <mxGeometry x="570" y="180" width="140" height="80" as="geometry" />
        </mxCell>
        <mxCell id="C5BarlyM2F8t3TJ2HvOE-31" value="Id" style="ellipse;whiteSpace=wrap;html=1;" vertex="1" parent="1">
          <mxGeometry x="580" y="270" width="50" height="40" as="geometry" />
        </mxCell>
        <mxCell id="C5BarlyM2F8t3TJ2HvOE-32" value="Data do pagamento" style="ellipse;whiteSpace=wrap;html=1;" vertex="1" parent="1">
          <mxGeometry x="640" y="270" width="90" height="50" as="geometry" />
        </mxCell>
        <mxCell id="C5BarlyM2F8t3TJ2HvOE-33" value="Status" style="ellipse;whiteSpace=wrap;html=1;" vertex="1" parent="1">
          <mxGeometry x="730" y="180" width="80" height="40" as="geometry" />
        </mxCell>
        <mxCell id="C5BarlyM2F8t3TJ2HvOE-34" value="Valor pago" style="ellipse;whiteSpace=wrap;html=1;" vertex="1" parent="1">
          <mxGeometry x="735" y="230" width="70" height="40" as="geometry" />
        </mxCell>
        <mxCell id="C5BarlyM2F8t3TJ2HvOE-49" style="rounded=0;orthogonalLoop=1;jettySize=auto;html=1;exitX=0;exitY=1;exitDx=0;exitDy=0;" edge="1" parent="1" source="C5BarlyM2F8t3TJ2HvOE-35" target="C5BarlyM2F8t3TJ2HvOE-44">
          <mxGeometry relative="1" as="geometry" />
        </mxCell>
        <mxCell id="C5BarlyM2F8t3TJ2HvOE-53" style="rounded=0;orthogonalLoop=1;jettySize=auto;html=1;exitX=0.25;exitY=1;exitDx=0;exitDy=0;" edge="1" parent="1" source="C5BarlyM2F8t3TJ2HvOE-35" target="C5BarlyM2F8t3TJ2HvOE-50">
          <mxGeometry relative="1" as="geometry" />
        </mxCell>
        <mxCell id="C5BarlyM2F8t3TJ2HvOE-56" style="rounded=0;orthogonalLoop=1;jettySize=auto;html=1;exitX=0.5;exitY=1;exitDx=0;exitDy=0;" edge="1" parent="1" source="C5BarlyM2F8t3TJ2HvOE-35" target="C5BarlyM2F8t3TJ2HvOE-54">
          <mxGeometry relative="1" as="geometry" />
        </mxCell>
        <mxCell id="C5BarlyM2F8t3TJ2HvOE-57" style="rounded=0;orthogonalLoop=1;jettySize=auto;html=1;exitX=0.75;exitY=1;exitDx=0;exitDy=0;" edge="1" parent="1" source="C5BarlyM2F8t3TJ2HvOE-35" target="C5BarlyM2F8t3TJ2HvOE-55">
          <mxGeometry relative="1" as="geometry" />
        </mxCell>
        <mxCell id="C5BarlyM2F8t3TJ2HvOE-61" style="rounded=0;orthogonalLoop=1;jettySize=auto;html=1;exitX=1;exitY=1;exitDx=0;exitDy=0;" edge="1" parent="1" source="C5BarlyM2F8t3TJ2HvOE-35" target="C5BarlyM2F8t3TJ2HvOE-58">
          <mxGeometry relative="1" as="geometry" />
        </mxCell>
        <mxCell id="C5BarlyM2F8t3TJ2HvOE-62" style="edgeStyle=orthogonalEdgeStyle;rounded=0;orthogonalLoop=1;jettySize=auto;html=1;exitX=1;exitY=0.75;exitDx=0;exitDy=0;curved=1;" edge="1" parent="1" source="C5BarlyM2F8t3TJ2HvOE-35" target="C5BarlyM2F8t3TJ2HvOE-59">
          <mxGeometry relative="1" as="geometry" />
        </mxCell>
        <mxCell id="C5BarlyM2F8t3TJ2HvOE-35" value="Mídia" style="rounded=0;whiteSpace=wrap;html=1;" vertex="1" parent="1">
          <mxGeometry x="127.5" y="780" width="235" height="130" as="geometry" />
        </mxCell>
        <mxCell id="C5BarlyM2F8t3TJ2HvOE-37" value="Id" style="ellipse;whiteSpace=wrap;html=1;" vertex="1" parent="1">
          <mxGeometry x="375" y="780" width="50" height="40" as="geometry" />
        </mxCell>
        <mxCell id="C5BarlyM2F8t3TJ2HvOE-38" value="Título" style="ellipse;whiteSpace=wrap;html=1;" vertex="1" parent="1">
          <mxGeometry x="860" y="1400" width="60" height="40" as="geometry" />
        </mxCell>
        <mxCell id="C5BarlyM2F8t3TJ2HvOE-39" value="Descrição" style="ellipse;whiteSpace=wrap;html=1;" vertex="1" parent="1">
          <mxGeometry x="265" y="730" width="70" height="40" as="geometry" />
        </mxCell>
        <mxCell id="C5BarlyM2F8t3TJ2HvOE-40" value="Duração" style="ellipse;whiteSpace=wrap;html=1;" vertex="1" parent="1">
          <mxGeometry x="740" y="1500" width="70" height="40" as="geometry" />
        </mxCell>
        <mxCell id="C5BarlyM2F8t3TJ2HvOE-41" value="Tipo" style="ellipse;whiteSpace=wrap;html=1;" vertex="1" parent="1">
          <mxGeometry x="345" y="730" width="70" height="40" as="geometry" />
        </mxCell>
        <mxCell id="C5BarlyM2F8t3TJ2HvOE-42" value="Ano de Lançamento" style="ellipse;whiteSpace=wrap;html=1;" vertex="1" parent="1">
          <mxGeometry x="10" y="770" width="110" height="60" as="geometry" />
        </mxCell>
        <mxCell id="C5BarlyM2F8t3TJ2HvOE-43" value="Classificação" style="ellipse;whiteSpace=wrap;html=1;" vertex="1" parent="1">
          <mxGeometry x="12.5" y="850" width="95" height="50" as="geometry" />
        </mxCell>
        <mxCell id="C5BarlyM2F8t3TJ2HvOE-44" value="Avaliação" style="rounded=0;whiteSpace=wrap;html=1;" vertex="1" parent="1">
          <mxGeometry x="-355" y="1169" width="170" height="80" as="geometry" />
        </mxCell>
        <mxCell id="C5BarlyM2F8t3TJ2HvOE-46" value="Id" style="ellipse;whiteSpace=wrap;html=1;" vertex="1" parent="1">
          <mxGeometry x="-360" y="1259" width="50" height="40" as="geometry" />
        </mxCell>
        <mxCell id="C5BarlyM2F8t3TJ2HvOE-47" value="Nota" style="ellipse;whiteSpace=wrap;html=1;" vertex="1" parent="1">
          <mxGeometry x="-300" y="1259" width="60" height="40" as="geometry" />
        </mxCell>
        <mxCell id="C5BarlyM2F8t3TJ2HvOE-48" value="Comentário" style="ellipse;whiteSpace=wrap;html=1;" vertex="1" parent="1">
          <mxGeometry x="-220" y="1254" width="80" height="50" as="geometry" />
        </mxCell>
        <mxCell id="C5BarlyM2F8t3TJ2HvOE-50" value="Gênero" style="rounded=0;whiteSpace=wrap;html=1;" vertex="1" parent="1">
          <mxGeometry x="-120" y="1320" width="170" height="84" as="geometry" />
        </mxCell>
        <mxCell id="C5BarlyM2F8t3TJ2HvOE-51" value="Nome" style="ellipse;whiteSpace=wrap;html=1;" vertex="1" parent="1">
          <mxGeometry x="-120" y="1409" width="60" height="40" as="geometry" />
        </mxCell>
        <mxCell id="C5BarlyM2F8t3TJ2HvOE-52" value="Id" style="ellipse;whiteSpace=wrap;html=1;" vertex="1" parent="1">
          <mxGeometry x="155" y="1175" width="50" height="40" as="geometry" />
        </mxCell>
        <mxCell id="C5BarlyM2F8t3TJ2HvOE-54" value="Ator" style="rounded=0;whiteSpace=wrap;html=1;" vertex="1" parent="1">
          <mxGeometry x="210" y="1175" width="180" height="84" as="geometry" />
        </mxCell>
        <mxCell id="C5BarlyM2F8t3TJ2HvOE-55" value="Diretor" style="rounded=0;whiteSpace=wrap;html=1;" vertex="1" parent="1">
          <mxGeometry x="425" y="1225.5" width="180" height="84" as="geometry" />
        </mxCell>
        <mxCell id="C5BarlyM2F8t3TJ2HvOE-60" style="rounded=0;orthogonalLoop=1;jettySize=auto;html=1;exitX=0.5;exitY=1;exitDx=0;exitDy=0;" edge="1" parent="1" source="C5BarlyM2F8t3TJ2HvOE-58" target="C5BarlyM2F8t3TJ2HvOE-59">
          <mxGeometry relative="1" as="geometry" />
        </mxCell>
        <mxCell id="C5BarlyM2F8t3TJ2HvOE-58" value="Temporada" style="rounded=0;whiteSpace=wrap;html=1;" vertex="1" parent="1">
          <mxGeometry x="850" y="1164" width="180" height="90" as="geometry" />
        </mxCell>
        <mxCell id="C5BarlyM2F8t3TJ2HvOE-59" value="Episódio" style="rounded=0;whiteSpace=wrap;html=1;" vertex="1" parent="1">
          <mxGeometry x="670" y="1400" width="170" height="80" as="geometry" />
        </mxCell>
        <mxCell id="C5BarlyM2F8t3TJ2HvOE-63" value="Id" style="ellipse;whiteSpace=wrap;html=1;" vertex="1" parent="1">
          <mxGeometry x="-40" y="1409" width="50" height="40" as="geometry" />
        </mxCell>
        <mxCell id="C5BarlyM2F8t3TJ2HvOE-64" value="Id" style="ellipse;whiteSpace=wrap;html=1;" vertex="1" parent="1">
          <mxGeometry x="435" y="1314.5" width="50" height="40" as="geometry" />
        </mxCell>
        <mxCell id="C5BarlyM2F8t3TJ2HvOE-65" value="Id" style="ellipse;whiteSpace=wrap;html=1;" vertex="1" parent="1">
          <mxGeometry x="675" y="1500" width="50" height="40" as="geometry" />
        </mxCell>
        <mxCell id="C5BarlyM2F8t3TJ2HvOE-66" value="Id" style="ellipse;whiteSpace=wrap;html=1;" vertex="1" parent="1">
          <mxGeometry x="950" y="1110" width="50" height="40" as="geometry" />
        </mxCell>
        <mxCell id="C5BarlyM2F8t3TJ2HvOE-67" value="Nacionalidade" style="ellipse;whiteSpace=wrap;html=1;" vertex="1" parent="1">
          <mxGeometry x="505" y="1314.5" width="90" height="50" as="geometry" />
        </mxCell>
        <mxCell id="C5BarlyM2F8t3TJ2HvOE-68" value="Nome" style="ellipse;whiteSpace=wrap;html=1;" vertex="1" parent="1">
          <mxGeometry x="135" y="1219" width="70" height="40" as="geometry" />
        </mxCell>
        <mxCell id="C5BarlyM2F8t3TJ2HvOE-69" value="Nome" style="ellipse;whiteSpace=wrap;html=1;" vertex="1" parent="1">
          <mxGeometry x="615" y="1225.5" width="70" height="40" as="geometry" />
        </mxCell>
        <mxCell id="C5BarlyM2F8t3TJ2HvOE-70" value="Data de nascimento" style="ellipse;whiteSpace=wrap;html=1;" vertex="1" parent="1">
          <mxGeometry x="190" y="1264" width="90" height="50" as="geometry" />
        </mxCell>
        <mxCell id="C5BarlyM2F8t3TJ2HvOE-73" value="Data de nascimento" style="ellipse;whiteSpace=wrap;html=1;" vertex="1" parent="1">
          <mxGeometry x="605" y="1314.5" width="90" height="50" as="geometry" />
        </mxCell>
        <mxCell id="C5BarlyM2F8t3TJ2HvOE-74" value="Nacionalidade" style="ellipse;whiteSpace=wrap;html=1;" vertex="1" parent="1">
          <mxGeometry x="295" y="1270" width="90" height="50" as="geometry" />
        </mxCell>
        <mxCell id="C5BarlyM2F8t3TJ2HvOE-76" value="Duração" style="ellipse;whiteSpace=wrap;html=1;" vertex="1" parent="1">
          <mxGeometry x="170" y="730" width="70" height="40" as="geometry" />
        </mxCell>
        <mxCell id="C5BarlyM2F8t3TJ2HvOE-77" value="Título" style="ellipse;whiteSpace=wrap;html=1;" vertex="1" parent="1">
          <mxGeometry x="90" y="730" width="60" height="40" as="geometry" />
        </mxCell>
        <mxCell id="C5BarlyM2F8t3TJ2HvOE-78" value="Numero" style="ellipse;whiteSpace=wrap;html=1;" vertex="1" parent="1">
          <mxGeometry x="860" y="1110" width="80" height="40" as="geometry" />
        </mxCell>
        <mxCell id="C5BarlyM2F8t3TJ2HvOE-81" value="Numero" style="ellipse;whiteSpace=wrap;html=1;" vertex="1" parent="1">
          <mxGeometry x="860" y="1460" width="80" height="40" as="geometry" />
        </mxCell>
        <mxCell id="C5BarlyM2F8t3TJ2HvOE-83" value="" style="rounded=0;orthogonalLoop=1;jettySize=auto;html=1;exitX=0.5;exitY=1;exitDx=0;exitDy=0;" edge="1" parent="1" source="C5BarlyM2F8t3TJ2HvOE-9" target="C5BarlyM2F8t3TJ2HvOE-35">
          <mxGeometry relative="1" as="geometry">
            <mxPoint x="250" y="420" as="sourcePoint" />
            <mxPoint x="250" y="550" as="targetPoint" />
          </mxGeometry>
        </mxCell>
      </root>
    </mxGraphModel>
  </diagram>
</mxfile>
